
<svg xmlns="http://www.w3.org/2000/svg" viewBox="0 0 64 64" fill="none" stroke="currentColor" stroke-width="1.5" stroke-linecap="round" stroke-linejoin="round">
  
  <g stroke="currentColor" stroke-width="0.75" opacity="0.45">
    <line x1="14" y1="14" x2="50" y2="14"></line>
    <line x1="50" y1="14" x2="50" y2="50"></line>
    <line x1="50" y1="50" x2="14" y2="50"></line>
    <line x1="14" y1="50" x2="14" y2="14"></line>
    <line x1="14" y1="14" x2="50" y2="50"></line>
    <line x1="50" y1="14" x2="14" y2="50"></line>
  </g>
  
  
  <path d="M14 10 L18 17 L10 17 Z" fill="var(--paper, #f4f1ea)"></path>
  
  <rect x="46.5" y="10.5" width="7" height="9" rx="1.2" fill="var(--paper, #f4f1ea)"></rect>
  
  <circle cx="50" cy="50" r="4.5" fill="var(--paper, #f4f1ea)"></circle>
  <line x1="47" y1="47" x2="53" y2="53" stroke-width="1"></line>
  <line x1="53" y1="47" x2="47" y2="53" stroke-width="1"></line>
  
  <rect x="10" y="46.5" width="8" height="6" rx="2" fill="var(--paper, #f4f1ea)"></rect>
  <circle cx="12.5" cy="53.5" r="1" fill="currentColor" stroke="none"></circle>
  <circle cx="15.5" cy="53.5" r="1" fill="currentColor" stroke="none"></circle>
  
  <circle cx="32" cy="32" r="3.5" fill="var(--signal, #c4ff3d)" stroke="var(--graphite, #1a1a1a)" stroke-width="1.5"></circle>
  <circle cx="32" cy="32" r="1" fill="var(--graphite, #1a1a1a)" stroke="none"></circle>
</svg>